<svg width="831" height="523" viewBox="0 0 831 523" fill="none" xmlns="http://www.w3.org/2000/svg">
<circle cx="589.5" cy="149.5" r="147.75" fill="url(#paint0_radial_0_1)" stroke="#FFD601" stroke-width="3.5"/>
<g filter="url(#filter0_bi_0_1)">
<mask id="path-2-inside-1_0_1" fill="white">
<path fill-rule="evenodd" clip-rule="evenodd" d="M676.5 523H154.5H139V522.232C60.9501 514.457 0 448.597 0 368.5C0 292.548 54.8056 229.397 127.027 216.435C127.009 215.459 127 214.481 127 213.5C127 128.172 196.172 59 281.5 59C344.362 59 398.455 96.5426 422.582 150.43C439.922 143.695 458.78 140 478.5 140C539.184 140 591.696 174.986 616.967 225.887C635.289 218.229 655.401 214 676.5 214C761.828 214 831 283.172 831 368.5C831 453.661 762.098 522.73 677 522.999V523H676.5Z"/>
</mask>
<path fill-rule="evenodd" clip-rule="evenodd" d="M676.5 523H154.5H139V522.232C60.9501 514.457 0 448.597 0 368.5C0 292.548 54.8056 229.397 127.027 216.435C127.009 215.459 127 214.481 127 213.5C127 128.172 196.172 59 281.5 59C344.362 59 398.455 96.5426 422.582 150.43C439.922 143.695 458.78 140 478.5 140C539.184 140 591.696 174.986 616.967 225.887C635.289 218.229 655.401 214 676.5 214C761.828 214 831 283.172 831 368.5C831 453.661 762.098 522.73 677 522.999V523H676.5Z" fill="#C9F1FE" fill-opacity="0.4"/>
<path d="M139 523H136V526H139V523ZM139 522.232H142V519.516L139.297 519.247L139 522.232ZM127.027 216.435L127.557 219.388L130.074 218.936L130.027 216.379L127.027 216.435ZM422.582 150.43L419.844 151.655L421.01 154.259L423.668 153.226L422.582 150.43ZM616.967 225.887L614.28 227.221L615.53 229.739L618.124 228.655L616.967 225.887ZM677 522.999L676.99 519.999L674 520.009V522.999H677ZM677 523V526H680V523H677ZM676.5 520H154.5V526H676.5V520ZM154.5 520H139V526H154.5V520ZM142 523V522.232H136V523H142ZM139.297 519.247C62.7662 511.623 3 447.039 3 368.5H-3C-3 450.154 59.134 517.291 138.703 525.217L139.297 519.247ZM3 368.5C3 294.026 56.7398 232.097 127.557 219.388L126.497 213.482C52.8713 226.696 -3 291.07 -3 368.5H3ZM130.027 216.379C130.009 215.422 130 214.462 130 213.5H124C124 214.499 124.009 215.496 124.028 216.491L130.027 216.379ZM130 213.5C130 129.829 197.829 62 281.5 62V56C194.515 56 124 126.515 124 213.5H130ZM281.5 62C343.137 62 396.183 98.8083 419.844 151.655L425.32 149.204C400.728 94.2768 345.587 56 281.5 56V62ZM423.668 153.226C440.668 146.623 459.157 143 478.5 143V137C458.402 137 439.177 140.766 421.496 147.633L423.668 153.226ZM478.5 143C538.001 143 589.496 177.301 614.28 227.221L619.654 224.553C593.896 172.67 540.366 137 478.5 137V143ZM618.124 228.655C636.086 221.148 655.805 217 676.5 217V211C654.996 211 634.492 215.311 615.81 223.119L618.124 228.655ZM676.5 217C760.171 217 828 284.829 828 368.5H834C834 281.515 763.485 211 676.5 211V217ZM828 368.5C828 452.008 760.436 519.735 676.99 519.999L677.01 525.999C763.76 525.724 834 455.315 834 368.5H828ZM674 522.999V523H680V522.999H674ZM677 520H676.5V526H677V520Z" fill="url(#paint1_linear_0_1)" mask="url(#path-2-inside-1_0_1)"/>
</g>
<defs>
<filter id="filter0_bi_0_1" x="-50" y="9" width="931" height="564" filterUnits="userSpaceOnUse" color-interpolation-filters="sRGB">
<feFlood flood-opacity="0" result="BackgroundImageFix"/>
<feGaussianBlur in="BackgroundImageFix" stdDeviation="25"/>
<feComposite in2="SourceAlpha" operator="in" result="effect1_backgroundBlur_0_1"/>
<feBlend mode="normal" in="SourceGraphic" in2="effect1_backgroundBlur_0_1" result="shape"/>
<feColorMatrix in="SourceAlpha" type="matrix" values="0 0 0 0 0 0 0 0 0 0 0 0 0 0 0 0 0 0 127 0" result="hardAlpha"/>
<feOffset/>
<feGaussianBlur stdDeviation="25"/>
<feComposite in2="hardAlpha" operator="arithmetic" k2="-1" k3="1"/>
<feColorMatrix type="matrix" values="0 0 0 0 1 0 0 0 0 1 0 0 0 0 1 0 0 0 1 0"/>
<feBlend mode="normal" in2="shape" result="effect2_innerShadow_0_1"/>
</filter>
<radialGradient id="paint0_radial_0_1" cx="0" cy="0" r="1" gradientUnits="userSpaceOnUse" gradientTransform="translate(589.5 149.5) rotate(89.8571) scale(200.501)">
<stop stop-color="#FF8A00"/>
<stop offset="1" stop-color="#FFD600"/>
</radialGradient>
<linearGradient id="paint1_linear_0_1" x1="415" y1="-52.5" x2="415.5" y2="523" gradientUnits="userSpaceOnUse">
<stop stop-color="#BEFDFD"/>
<stop offset="1" stop-color="#A6FFFF" stop-opacity="0"/>
</linearGradient>
</defs>
</svg>
